<svg xmlns="http://www.w3.org/2000/svg" xmlns:xlink="http://www.w3.org/1999/xlink" viewBox="0 0 1800 800"><defs><style>.cls-1{isolation:isolate;}.cls-2{fill:url(#linear-gradient);}.cls-3{fill:#e4eff2;}.cls-4{fill:#c7d5e0;}.cls-5{fill:#282a49;}.cls-11,.cls-12,.cls-21,.cls-23,.cls-27,.cls-28,.cls-30,.cls-32,.cls-34,.cls-37,.cls-38,.cls-39,.cls-42,.cls-47,.cls-48,.cls-49,.cls-50,.cls-53,.cls-57,.cls-6,.cls-61,.cls-64{opacity:0.49;mix-blend-mode:color-burn;}.cls-6{fill:url(#linear-gradient-2);}.cls-7{fill:#39ce9c;}.cls-8{fill:#3d6fd3;}.cls-9{fill:#ef513d;}.cls-10{fill:#b6cad8;}.cls-11{fill:url(#linear-gradient-3);}.cls-12{fill:url(#linear-gradient-4);}.cls-13,.cls-14,.cls-15,.cls-16{fill:none;stroke:#8bb1f7;stroke-width:2px;}.cls-13,.cls-14{stroke-miterlimit:10;}.cls-14{stroke-dasharray:4 4;}.cls-15,.cls-16{stroke-linecap:round;stroke-linejoin:round;}.cls-16{stroke-dasharray:4 6;}.cls-17{fill:#8bb1f7;}.cls-18{fill:#0a3147;}.cls-19{fill:url(#linear-gradient-5);}.cls-20{fill:#00598a;}.cls-21{fill:url(#linear-gradient-6);}.cls-22{fill:url(#linear-gradient-7);}.cls-23{fill:url(#linear-gradient-8);}.cls-24{fill:#dfdfdf;}.cls-25{fill:#0a4166;}.cls-26{fill:#c0d0d8;}.cls-27{fill:url(#linear-gradient-9);}.cls-29{fill:url(#linear-gradient-10);}.cls-30{fill:url(#linear-gradient-11);}.cls-31{fill:#f9aa8f;}.cls-32{fill:url(#linear-gradient-12);}.cls-33{fill:#2f5c63;}.cls-34{fill:url(#linear-gradient-13);}.cls-35{fill:#142b2e;}.cls-36{fill:#071c2a;}.cls-37{fill:url(#linear-gradient-14);}.cls-38{fill:url(#linear-gradient-15);}.cls-39{fill:url(#linear-gradient-16);}.cls-40{fill:#c17768;}.cls-41{fill:#633a30;}.cls-42{fill:url(#linear-gradient-17);}.cls-43{fill:#2b1915;}.cls-44{fill:url(#linear-gradient-18);}.cls-45{fill:#027f8a;}.cls-46{fill:url(#linear-gradient-19);}.cls-47{fill:url(#linear-gradient-20);}.cls-48{fill:url(#linear-gradient-21);}.cls-49{fill:url(#linear-gradient-22);}.cls-50{fill:url(#linear-gradient-23);}.cls-51{fill:#343a19;}.cls-52{fill:#646d31;}.cls-53{fill:url(#linear-gradient-24);}.cls-54{fill:#1d1550;}.cls-55{fill:#f59180;}.cls-56{fill:#f2bbb1;}.cls-57{fill:url(#linear-gradient-25);}.cls-58{fill:url(#linear-gradient-26);}.cls-59{fill:#f16554;}.cls-60{fill:#fac9bf;}.cls-61{fill:url(#linear-gradient-27);}.cls-62{fill:#59342d;}.cls-63{fill:url(#linear-gradient-28);}.cls-64{fill:url(#linear-gradient-29);}.cls-65{opacity:0.46;}.cls-66{fill:url(#linear-gradient-30);}.cls-67{fill:url(#linear-gradient-31);}.cls-68{fill:url(#linear-gradient-32);}.cls-69{fill:url(#linear-gradient-33);}.cls-70{fill:url(#linear-gradient-34);}.cls-71{fill:url(#linear-gradient-35);}.cls-72{fill:url(#linear-gradient-36);}.cls-73{fill:url(#linear-gradient-37);}.cls-74{fill:url(#linear-gradient-38);}.cls-75{fill:url(#linear-gradient-39);}.cls-76{fill:url(#linear-gradient-40);}.cls-77{fill:url(#linear-gradient-41);}.cls-78{fill:url(#linear-gradient-42);}.cls-79{fill:url(#linear-gradient-43);}.cls-80{fill:url(#linear-gradient-44);}.cls-81{fill:url(#linear-gradient-45);}.cls-82{fill:url(#linear-gradient-46);}.cls-83{fill:url(#linear-gradient-47);}.cls-84{fill:url(#linear-gradient-48);}.cls-85{fill:url(#linear-gradient-49);}.cls-86{fill:url(#linear-gradient-50);}.cls-87{fill:url(#linear-gradient-51);}.cls-88{fill:url(#linear-gradient-52);}.cls-89{fill:url(#linear-gradient-53);}.cls-90{fill:url(#linear-gradient-54);}.cls-91{fill:url(#linear-gradient-55);}.cls-92{fill:url(#linear-gradient-56);}.cls-93{fill:url(#linear-gradient-57);}.cls-94{fill:url(#linear-gradient-58);}.cls-95{fill:url(#linear-gradient-59);}.cls-96{fill:url(#linear-gradient-60);}.cls-97{fill:url(#linear-gradient-61);}.cls-98{fill:url(#linear-gradient-62);}.cls-99{fill:url(#linear-gradient-63);}.cls-100{fill:url(#linear-gradient-64);}</style><linearGradient id="linear-gradient" x1="900" y1="1088.62" x2="900" y2="-933.13" gradientUnits="userSpaceOnUse"><stop offset="0.13" stop-color="#fff"/><stop offset="1" stop-color="#d1d3d4"/></linearGradient><linearGradient id="linear-gradient-2" x1="866.32" y1="289.21" x2="866.32" y2="226.7" gradientUnits="userSpaceOnUse"><stop offset="0" stop-color="#fff" stop-opacity="0"/><stop offset="0.09" stop-color="#eaeaea" stop-opacity="0.09"/><stop offset="1"/></linearGradient><linearGradient id="linear-gradient-3" x1="1322.03" y1="314.37" x2="1240.03" y2="24.37" gradientUnits="userSpaceOnUse"><stop offset="0" stop-color="#fff" stop-opacity="0"/><stop offset="1"/></linearGradient><linearGradient id="linear-gradient-4" x1="1435.75" y1="431.66" x2="1080.27" y2="968.63" xlink:href="#linear-gradient-3"/><linearGradient id="linear-gradient-5" x1="877.23" y1="626.6" x2="846.76" y2="615.41" gradientUnits="userSpaceOnUse"><stop offset="0" stop-color="#00598a"/><stop offset="1" stop-color="#074469"/></linearGradient><linearGradient id="linear-gradient-6" x1="842.65" y1="616.88" x2="832.7" y2="508.1" xlink:href="#linear-gradient-3"/><linearGradient id="linear-gradient-7" x1="933.85" y1="484.97" x2="835.04" y2="484.97" gradientUnits="userSpaceOnUse"><stop offset="0" stop-color="#2f5c63"/><stop offset="0.37" stop-color="#2e5a61"/><stop offset="0.58" stop-color="#2a5259"/><stop offset="0.75" stop-color="#24454b"/><stop offset="0.9" stop-color="#1b3337"/><stop offset="1" stop-color="#122124"/></linearGradient><linearGradient id="linear-gradient-8" x1="903.03" y1="484.96" x2="848.14" y2="484.96" xlink:href="#linear-gradient-3"/><linearGradient id="linear-gradient-9" x1="1016.57" y1="534.6" x2="1025.76" y2="481.72" xlink:href="#linear-gradient-3"/><linearGradient id="linear-gradient-10" x1="778.01" y1="539.85" x2="867.95" y2="540.9" xlink:href="#linear-gradient-3"/><linearGradient id="linear-gradient-11" x1="920.46" y1="547.62" x2="939.45" y2="486.37" xlink:href="#linear-gradient-3"/><linearGradient id="linear-gradient-12" x1="844.72" y1="431.85" x2="899.56" y2="456.26" xlink:href="#linear-gradient-3"/><linearGradient id="linear-gradient-13" x1="914.17" y1="427.17" x2="833.04" y2="391.24" gradientUnits="userSpaceOnUse"><stop offset="0" stop-color="#fff" stop-opacity="0"/><stop offset="0.8"/></linearGradient><linearGradient id="linear-gradient-14" x1="899.94" y1="418.26" x2="886.45" y2="412.28" xlink:href="#linear-gradient-3"/><linearGradient id="linear-gradient-15" x1="866.19" y1="528.23" x2="867.38" y2="481.27" xlink:href="#linear-gradient-3"/><linearGradient id="linear-gradient-16" x1="807.66" y1="554.13" x2="838.4" y2="438.41" xlink:href="#linear-gradient-3"/><linearGradient id="linear-gradient-17" x1="-5379.49" y1="431.79" x2="-5518.31" y2="428.15" gradientTransform="matrix(-1, 0, 0, 1, -4112.34, 0)" xlink:href="#linear-gradient-13"/><linearGradient id="linear-gradient-18" x1="-5429.37" y1="590.99" x2="-5499.63" y2="610.44" gradientTransform="matrix(-1, 0, 0, 1, -4112.34, 0)" gradientUnits="userSpaceOnUse"><stop offset="0" stop-color="#025c63"/><stop offset="0.92" stop-color="#027f8a"/></linearGradient><linearGradient id="linear-gradient-19" x1="-5489.44" y1="488.11" x2="-5448.48" y2="584.91" xlink:href="#linear-gradient-18"/><linearGradient id="linear-gradient-20" x1="-5429.97" y1="398.18" x2="-5454.32" y2="346.75" gradientTransform="matrix(-1, 0, 0, 1, -4112.34, 0)" xlink:href="#linear-gradient-13"/><linearGradient id="linear-gradient-21" x1="-5459.47" y1="490.44" x2="-5570.97" y2="431.5" gradientTransform="matrix(-1, 0, 0, 1, -4112.34, 0)" xlink:href="#linear-gradient-13"/><linearGradient id="linear-gradient-22" x1="-5504.13" y1="437.61" x2="-5640.57" y2="432.07" gradientTransform="matrix(-1, 0, 0, 1, -4112.34, 0)" xlink:href="#linear-gradient-13"/><linearGradient id="linear-gradient-23" x1="-5556.16" y1="444.07" x2="-5569.25" y2="320.55" gradientTransform="matrix(-1, 0, 0, 1, -4112.34, 0)" xlink:href="#linear-gradient-13"/><linearGradient id="linear-gradient-24" x1="-5448.06" y1="416.26" x2="-5498.92" y2="419.33" gradientTransform="matrix(-1, 0, 0, 1, -4112.34, 0)" xlink:href="#linear-gradient-13"/><linearGradient id="linear-gradient-25" x1="228.43" y1="646.94" x2="362.43" y2="556.94" xlink:href="#linear-gradient-3"/><linearGradient id="linear-gradient-26" x1="356.82" y1="529.28" x2="455.51" y2="529.28" gradientUnits="userSpaceOnUse"><stop offset="0" stop-color="#0f0d18"/><stop offset="0.22" stop-color="#15102f"/><stop offset="0.46" stop-color="#191342"/><stop offset="0.71" stop-color="#1c144c"/><stop offset="1" stop-color="#1d1550"/></linearGradient><linearGradient id="linear-gradient-27" x1="405.14" y1="529.48" x2="432.64" y2="485.73" xlink:href="#linear-gradient-13"/><linearGradient id="linear-gradient-28" x1="419.24" y1="654.04" x2="405.19" y2="657.03" gradientUnits="userSpaceOnUse"><stop offset="0" stop-color="#866f6c"/><stop offset="0.05" stop-color="#977c78"/><stop offset="0.14" stop-color="#b6948e"/><stop offset="0.25" stop-color="#cfa7a0"/><stop offset="0.37" stop-color="#e2b6ae"/><stop offset="0.51" stop-color="#f0c1b8"/><stop offset="0.68" stop-color="#f8c7bd"/><stop offset="1" stop-color="#fac9bf"/></linearGradient><linearGradient id="linear-gradient-29" x1="415.68" y1="465.9" x2="440.18" y2="503.73" xlink:href="#linear-gradient-13"/><linearGradient id="linear-gradient-30" x1="420.6" y1="528.21" x2="420.6" y2="77.1" xlink:href="#linear-gradient"/><linearGradient id="linear-gradient-31" x1="438.45" y1="528.21" x2="438.45" y2="77.1" xlink:href="#linear-gradient"/><linearGradient id="linear-gradient-32" x1="456.3" y1="528.21" x2="456.3" y2="77.1" xlink:href="#linear-gradient"/><linearGradient id="linear-gradient-33" x1="474.15" y1="528.21" x2="474.15" y2="77.1" xlink:href="#linear-gradient"/><linearGradient id="linear-gradient-34" x1="492" y1="528.21" x2="492" y2="77.1" xlink:href="#linear-gradient"/><linearGradient id="linear-gradient-35" x1="420.6" y1="528.22" x2="420.6" y2="77.1" xlink:href="#linear-gradient"/><linearGradient id="linear-gradient-36" x1="438.45" y1="528.22" x2="438.45" y2="77.1" xlink:href="#linear-gradient"/><linearGradient id="linear-gradient-37" x1="456.3" y1="528.22" x2="456.3" y2="77.1" xlink:href="#linear-gradient"/><linearGradient id="linear-gradient-38" x1="474.15" y1="528.22" x2="474.15" y2="77.1" xlink:href="#linear-gradient"/><linearGradient id="linear-gradient-39" x1="492" y1="528.22" x2="492" y2="77.1" xlink:href="#linear-gradient"/><linearGradient id="linear-gradient-40" x1="420.6" y1="528.21" x2="420.6" y2="77.1" xlink:href="#linear-gradient"/><linearGradient id="linear-gradient-41" x1="438.45" y1="528.21" x2="438.45" y2="77.1" xlink:href="#linear-gradient"/><linearGradient id="linear-gradient-42" x1="456.3" y1="528.21" x2="456.3" y2="77.1" xlink:href="#linear-gradient"/><linearGradient id="linear-gradient-43" x1="474.15" y1="528.21" x2="474.15" y2="77.1" xlink:href="#linear-gradient"/><linearGradient id="linear-gradient-44" x1="492" y1="528.21" x2="492" y2="77.1" xlink:href="#linear-gradient"/><linearGradient id="linear-gradient-45" x1="420.6" y1="528.22" x2="420.6" y2="77.1" xlink:href="#linear-gradient"/><linearGradient id="linear-gradient-46" x1="438.45" y1="528.22" x2="438.45" y2="77.1" xlink:href="#linear-gradient"/><linearGradient id="linear-gradient-47" x1="456.3" y1="528.22" x2="456.3" y2="77.1" xlink:href="#linear-gradient"/><linearGradient id="linear-gradient-48" x1="474.15" y1="528.22" x2="474.15" y2="77.1" xlink:href="#linear-gradient"/><linearGradient id="linear-gradient-49" x1="492" y1="528.22" x2="492" y2="77.1" xlink:href="#linear-gradient"/><linearGradient id="linear-gradient-50" x1="420.6" y1="528.21" x2="420.6" y2="77.1" xlink:href="#linear-gradient"/><linearGradient id="linear-gradient-51" x1="438.45" y1="528.21" x2="438.45" y2="77.1" xlink:href="#linear-gradient"/><linearGradient id="linear-gradient-52" x1="456.3" y1="528.21" x2="456.3" y2="77.1" xlink:href="#linear-gradient"/><linearGradient id="linear-gradient-53" x1="474.15" y1="528.21" x2="474.15" y2="77.1" xlink:href="#linear-gradient"/><linearGradient id="linear-gradient-54" x1="492" y1="528.21" x2="492" y2="77.1" xlink:href="#linear-gradient"/><linearGradient id="linear-gradient-55" x1="420.6" y1="528.22" x2="420.6" y2="77.1" xlink:href="#linear-gradient"/><linearGradient id="linear-gradient-56" x1="438.45" y1="528.22" x2="438.45" y2="77.1" xlink:href="#linear-gradient"/><linearGradient id="linear-gradient-57" x1="456.3" y1="528.22" x2="456.3" y2="77.1" xlink:href="#linear-gradient"/><linearGradient id="linear-gradient-58" x1="474.15" y1="528.22" x2="474.15" y2="77.1" xlink:href="#linear-gradient"/><linearGradient id="linear-gradient-59" x1="492" y1="528.22" x2="492" y2="77.1" xlink:href="#linear-gradient"/><linearGradient id="linear-gradient-60" x1="420.6" y1="528.22" x2="420.6" y2="77.1" xlink:href="#linear-gradient"/><linearGradient id="linear-gradient-61" x1="438.45" y1="528.22" x2="438.45" y2="77.1" xlink:href="#linear-gradient"/><linearGradient id="linear-gradient-62" x1="456.3" y1="528.22" x2="456.3" y2="77.1" xlink:href="#linear-gradient"/><linearGradient id="linear-gradient-63" x1="474.15" y1="528.22" x2="474.15" y2="77.1" xlink:href="#linear-gradient"/><linearGradient id="linear-gradient-64" x1="492" y1="528.22" x2="492" y2="77.1" xlink:href="#linear-gradient"/></defs><title>collaboration on design like the blue website header</title><g class="cls-1"><g id="Layer_1" data-name="Layer 1"><path class="cls-2" d="M1614.63,608.45V485.71h-48V334.85a8.29,8.29,0,0,0-8.29-8.29h-9a48.74,48.74,0,0,0-48.74,48.74V494.68h-52.54V455.43h-78.94V407.34H1322v13.32h-80.14V341.48L991.63,233.86,896.07,386.19,802.8,365.78l-91.19-21-87-45.58H596.31v51.37h-84V265.33H400.25V527.59h-39V504.42H305.35V442.56a14.7,14.7,0,0,0-14.7-14.7H248.8a14.7,14.7,0,0,0-14.7,14.7V615.11H116.36v68H1683.64V608.45Z"/><path class="cls-3" d="M574.08,194.6h605.57a1,1,0,0,1,1,1V636.78a1,1,0,0,1-1,1H574.08A22.12,22.12,0,0,1,552,615.7v-399a22.12,22.12,0,0,1,22.12-22.12Z"/><rect class="cls-4" x="888.33" y="493.9" width="168.48" height="12.66"/><rect class="cls-4" x="888.33" y="522.14" width="168.48" height="12.66"/><rect class="cls-4" x="888.33" y="550.38" width="168.48" height="12.66"/><rect class="cls-4" x="888.33" y="578.62" width="84.24" height="12.66"/><path class="cls-5" d="M1179.64,194.6H574.08A22.19,22.19,0,0,0,552,216.72v19.5h628.73V195.64A1,1,0,0,0,1179.64,194.6Z"/><rect class="cls-6" x="551.95" y="236.22" width="628.73" height="26.23"/><circle class="cls-7" cx="647.76" cy="215.4" r="5.23"/><circle class="cls-8" cx="619.42" cy="215.4" r="5.23"/><circle class="cls-9" cx="591.08" cy="215.4" r="5.23"/><rect class="cls-4" x="585.85" y="355.6" width="83.57" height="98.88" rx="3.69" ry="3.69"/><rect class="cls-4" x="688.43" y="355.6" width="168.48" height="12.66"/><rect class="cls-4" x="688.43" y="383.83" width="168.48" height="12.66"/><rect class="cls-4" x="688.43" y="412.07" width="168.48" height="12.66"/><rect class="cls-4" x="688.43" y="440.31" width="84.24" height="12.66"/><rect class="cls-4" x="888.33" y="355.6" width="271.06" height="98.88" rx="6.65" ry="6.65"/><rect class="cls-4" x="585.85" y="262.92" width="573.53" height="71.41" rx="3.14" ry="3.14"/><path class="cls-4" d="M594.19,476.74H848.58a8.34,8.34,0,0,1,8.34,8.34v109.8a8.34,8.34,0,0,1-8.34,8.34H606.51a20.66,20.66,0,0,1-20.66-20.66V485.08A8.34,8.34,0,0,1,594.19,476.74Z"/><circle class="cls-10" cx="721.38" cy="537.6" r="24.8"/><path class="cls-4" d="M715.63,532.49v10.22a3.2,3.2,0,0,0,4.88,2.72l8.27-5.11a3.2,3.2,0,0,0,0-5.44l-8.27-5.11A3.2,3.2,0,0,0,715.63,532.49Z"/><path class="cls-8" d="M1240.63,176v73.52h199.25a27.37,27.37,0,0,0,27.37-27.37V176c0-49.81-38.95-90.87-87.88-94.46v-.35H1068C1120.17,81.15,1240.63,123.82,1240.63,176Z"/><path class="cls-11" d="M1240.63,176v73.52h199.25a27.37,27.37,0,0,0,27.37-27.37V176c0-49.81-38.95-90.87-87.88-94.46v-.35H1068C1120.17,81.15,1240.63,123.82,1240.63,176Z"/><path class="cls-8" d="M1240.63,624V592.54h199.25a27.37,27.37,0,0,1,27.37,27.37V624c0,49.81-38.95,90.87-87.88,94.46v.35H1068C1120.17,718.85,1240.63,676.18,1240.63,624Z"/><path class="cls-12" d="M1240.63,624V592.54h199.25a27.37,27.37,0,0,1,27.37,27.37V624c0,49.81-38.95,90.87-87.88,94.46v.35H1068C1120.17,718.85,1240.63,676.18,1240.63,624Z"/><path class="cls-8" d="M1254.86,624V176c0-52.15,42.67-94.82,94.82-94.82H1038.33v.35c-48.93,3.6-87.88,44.65-87.88,94.46V624c0,49.81,38.95,90.87,87.88,94.46v.35h311.35C1297.53,718.85,1254.86,676.18,1254.86,624Z"/><rect class="cls-13" x="1027.49" y="460.98" width="147.47" height="147.47" rx="7.18" ry="7.18"/><rect class="cls-13" x="1045.08" y="478.57" width="37.08" height="37.08"/><polyline class="cls-13" points="1157.38 582.82 1157.38 590.87 1149.33 590.87"/><rect class="cls-13" x="1027.49" y="460.98" width="147.47" height="147.47" rx="7.18" ry="7.18"/><rect class="cls-13" x="1045.08" y="478.57" width="37.08" height="37.08"/><polyline class="cls-13" points="1157.38 582.82 1157.38 590.87 1149.33 590.87"/><line class="cls-13" x1="1029.62" y1="606.32" x2="1172.83" y2="463.11"/><line class="cls-13" x1="1157.38" y1="534.21" x2="1126.15" y2="534.21"/><line class="cls-13" x1="1157.38" y1="543.54" x2="1117.57" y2="543.54"/><line class="cls-13" x1="1157.38" y1="552.86" x2="1106.82" y2="552.86"/><line class="cls-13" x1="1157.38" y1="562.19" x2="1098.18" y2="562.19"/><line class="cls-13" x1="1157.38" y1="571.51" x2="1089.47" y2="571.51"/><line class="cls-13" x1="1045.08" y1="562.19" x2="1046.49" y2="562.19"/><line class="cls-13" x1="1045.08" y1="552.86" x2="1057.25" y2="552.86"/><line class="cls-13" x1="1045.08" y1="543.54" x2="1065.88" y2="543.54"/><line class="cls-13" x1="1045.08" y1="534.21" x2="1074.6" y2="534.21"/><polygon class="cls-13" points="1081.78 493.7 1076.67 488.6 1063.31 501.97 1055.18 493.85 1045.08 503.96 1045.08 515.65 1082.16 515.65 1082.16 494.29 1081.78 493.7"/><polygon class="cls-13" points="1081.78 493.7 1076.67 488.6 1063.31 501.97 1055.18 493.85 1045.08 503.96 1045.08 515.65 1082.16 515.65 1082.16 494.29 1081.78 493.7"/><rect class="cls-13" x="1140.62" y="508.3" width="2.13" height="2.13"/><rect class="cls-13" x="1155.25" y="508.3" width="2.13" height="2.13"/><rect class="cls-13" x="1140.62" y="522.93" width="2.13" height="2.13"/><rect class="cls-13" x="1155.25" y="522.93" width="2.13" height="2.13"/><polygon class="cls-13" points="1142.75 509.36 1142.75 510.43 1141.68 510.43 1141.68 522.93 1142.75 522.93 1142.75 523.99 1155.25 523.99 1155.25 522.93 1156.31 522.93 1156.31 510.43 1155.25 510.43 1155.25 509.36 1142.75 509.36"/><rect class="cls-13" x="980.93" y="315.51" width="20.95" height="20.95"/><rect class="cls-13" x="1200.57" y="315.51" width="20.95" height="20.95"/><rect class="cls-13" x="980.93" y="627.47" width="20.95" height="20.95"/><rect class="cls-13" x="1200.57" y="627.47" width="20.95" height="20.95"/><polyline class="cls-14" points="1066.81 325.98 1001.88 325.98 1001.88 336.46 991.4 336.46 991.4 627.47 1001.88 627.47 1001.88 637.95 1200.57 637.95 1200.57 627.47 1211.05 627.47 1211.05 336.46 1200.57 336.46 1200.57 325.98 1135.65 325.98"/><path class="cls-13" d="M1101.23,385.61A109.61,109.61,0,0,1,991.63,276"/><path class="cls-13" d="M1101.23,166.4A109.59,109.59,0,0,1,1210.82,276"/><path class="cls-14" d="M1210.82,276a109.59,109.59,0,0,1-109.6,109.61"/><path class="cls-14" d="M991.63,276a109.61,109.61,0,0,1,109.6-109.61"/><path class="cls-13" d="M1041.13,276c0-60.52,26.92-109.61,60.11-109.61"/><path class="cls-13" d="M1161.33,276c0,60.53-26.9,109.61-60.09,109.61"/><path class="cls-14" d="M1101.24,166.4c33.19,0,60.09,49.08,60.09,109.61"/><path class="cls-13" d="M1140.67,227.19a110.51,110.51,0,0,0,39.71-26.72,108.94,108.94,0,0,0-158.27,0,110.19,110.19,0,0,0,39.67,26.72"/><path class="cls-13" d="M1101.23,320.88a109.15,109.15,0,0,0-77.71,32.39,109.54,109.54,0,0,0,155.44,0A109.14,109.14,0,0,0,1101.23,320.88Z"/><line class="cls-13" x1="991.63" y1="276.01" x2="1079.81" y2="276.01"/><line class="cls-13" x1="1122.48" y1="276.01" x2="1210.82" y2="276.01"/><line class="cls-13" x1="1101.23" y1="321" x2="1101.23" y2="385.61"/><path class="cls-14" d="M1101.24,385.61c-33.19,0-60.11-49.08-60.11-109.61"/><line class="cls-13" x1="1101.23" y1="166.41" x2="1101.23" y2="197.71"/><path class="cls-15" d="M1140.67,237.16a39.45,39.45,0,1,0-67,28.17,39.35,39.35,0,0,1,10.13,26.39h34.9a39.27,39.27,0,0,1,10.14-26.39A39.33,39.33,0,0,0,1140.67,237.16Z"/><path class="cls-15" d="M1083.76,291.17v13.7a16,16,0,0,0,16,16h2.91a16,16,0,0,0,16-16V291.72h-34.9C1083.79,291.53,1083.76,291.35,1083.76,291.17Z"/><line class="cls-15" x1="1083.76" y1="299.24" x2="1118.69" y2="299.24"/><line class="cls-15" x1="1083.76" y1="305.41" x2="1118.69" y2="305.41"/><line class="cls-15" x1="1085.82" y1="311.57" x2="1116.63" y2="311.57"/><path class="cls-16" d="M1101.23,211.07a27.13,27.13,0,0,1,27.13,27.13"/><path class="cls-16" d="M1101.23,265.33a27.13,27.13,0,0,1-27.13-27.13"/><path class="cls-15" d="M1074.1,238.2a27.13,27.13,0,0,1,27.13-27.13"/><path class="cls-15" d="M1128.36,238.2a27.13,27.13,0,0,1-27.13,27.13"/><rect class="cls-17" x="1027.48" y="419.07" width="7.3" height="26.51"/><rect class="cls-17" x="1041.44" y="428.05" width="7.3" height="17.53"/><rect class="cls-17" x="1055.41" y="437.41" width="7.3" height="8.16"/><rect class="cls-17" x="1069.38" y="410" width="7.3" height="35.58"/><rect class="cls-17" x="1083.34" y="432.32" width="7.3" height="13.25"/><rect class="cls-13" x="1106.28" y="404.46" width="3.29" height="2.58"/><line class="cls-13" x1="1119.61" y1="405.74" x2="1174.96" y2="405.74"/><rect class="cls-13" x="1106.28" y="417.3" width="3.29" height="2.58"/><line class="cls-13" x1="1119.61" y1="418.59" x2="1174.96" y2="418.59"/><rect class="cls-13" x="1106.28" y="430.15" width="3.29" height="2.58"/><line class="cls-13" x1="1119.61" y1="431.44" x2="1174.96" y2="431.44"/><rect class="cls-13" x="1106.28" y="443" width="3.29" height="2.58"/><line class="cls-13" x1="1119.61" y1="444.29" x2="1174.96" y2="444.29"/><path class="cls-18" d="M884.93,565.28l-13.48-109H849.12s-4.07,103,30.62,113.39A4.08,4.08,0,0,0,884.93,565.28Z"/><path class="cls-19" d="M816.42,555.85s9-6.32,55.62,67.28L886.21,704h7.08s10.24-65.5,8.36-87.36c-1.49-17.33-32.54-67.11-32.54-67.11Z"/><path class="cls-20" d="M862.11,549.53l-28.87-.63c.54-6.58.77-11.35.32-11.71-1.53-1.22-8.15-3.35-8.15-3.35-20.07,23.93-12.15,41.43-4.48,50.55,2.78,4,8.89,15.27,12.3,40.51L821.87,704H829s30.66-53.73,34.59-77.23C866.37,609.82,862.11,549.53,862.11,549.53Zm-28.79,74.81.24-1.72h0Z"/><path class="cls-21" d="M863.12,566l-45.67-20.48c-9.39,18-2.87,31.3,3.48,38.85,2.78,4,8.89,15.27,12.3,40.51l-.31,2.17a74.53,74.53,0,0,0,2.68-18.91c.06-20.78,27.51-42.14,27.51-42.15Zm-29.81,58.33.24-1.72h0Z"/><path class="cls-22" d="M869,445.19s19.54,40.1,74.44,61.79v6.42s-79,36.93-79-22.5C864.51,476.13,869,474.22,869,445.19Z"/><path class="cls-23" d="M886.64,469h0C874.18,455.77,869,445.19,869,445.19c0,29-4.52,30.94-4.52,45.72,0,31.91,22.78,36,43.86,33-33.44-1.14-18.39-27.79-13.88-34.42S886.64,469,886.64,469Z"/><path class="cls-24" d="M843.45,439.66S814,496.58,814,554.24c0,0,21,27.84,70.21,4.1a2.14,2.14,0,0,0,1.18-2.21l-13.92-99.81Z"/><path class="cls-25" d="M854.64,450.07V567.26A12.94,12.94,0,0,1,836.37,579c-14.92-6.72-33.57-23-33.57-62.59Z"/><path class="cls-26" d="M1028,502.62l-5.81,3.69a7.86,7.86,0,0,1-3.55,1.2l-18.14,1.55-13.4,14.25,33.53-8.51a7.86,7.86,0,0,1,3.82,0l5.8,1.43a2.15,2.15,0,0,0,1.37-.11l21.77-9.43a.54.54,0,0,0-.14-1l-23.8-3.35A2.15,2.15,0,0,0,1028,502.62Z"/><path class="cls-27" d="M1032.85,505.35l-7.68,6.75-12.66,2.06-5.64-4.13-11.1,4-8.69,9.24,33.53-8.51a7.87,7.87,0,0,1,3.82,0l5.8,1.43a2.16,2.16,0,0,0,1.37-.12l21.25-9.2Z"/><path class="cls-7" d="M946.68,513.39S821.12,524.1,806.84,526.23c-20.83,3.1-29.87,33.54,7.65,33.11,25.84-.3,159.49-30.77,186.27-38.43a9.31,9.31,0,0,0,6.83-8.33c.13-2.53-.85-4.75-4.79-4.67C993.81,508.08,946.68,513.39,946.68,513.39Z"/><g class="cls-28"><path class="cls-29" d="M836.94,533.84c-2.13-9.34,11.29-11.67,15.91-12.19-22.23,2-41,3.84-46,4.59-20.83,3.1-29.87,33.54,7.65,33.11A119.56,119.56,0,0,0,828.11,558l11.41-7.35S839.5,545.09,836.94,533.84Z"/></g><path class="cls-30" d="M912,516.39c-24.12,4.14-25.52,30.88-25.52,30.9,22.09-4.57,45.71-9.79,66-14.49-.16,0-18.81,3.23-19.26-3.52s33.13-16.44,33.13-16.44v-1.59c-10.78,1.15-19.65,2.14-19.65,2.14S931.92,514.65,912,516.39Z"/><path class="cls-31" d="M831.9,533.84l7.34,14.77a2.67,2.67,0,0,1-.5,3.07l-8.36,8.39a1.61,1.61,0,0,1-2.71-1.53,19.11,19.11,0,0,1,2.25-5.43,9.66,9.66,0,0,0,1.35-7l-.48-2.38Z"/><path class="cls-31" d="M943.54,507s3.27.41,10.2-6.62a1.35,1.35,0,0,1,1.84-.07l11.87,10.23s0,3.1-2.21,2.21c-1.39-.55-4.85-2-7.25-3a5.08,5.08,0,0,0-4.62.38c-2.82,1.75-7.69,4.39-9.9,3.24Z"/><polygon class="cls-31" points="843.45 439.66 858.46 420.65 869.09 420.65 869.11 454.93 843.45 439.66"/><path class="cls-32" d="M869.09,433.68s-7.21-.65-7.26,5.4-3.36,7.91-3.36,7.91L847.3,436.76l5.25-6.95A52.47,52.47,0,0,0,869.09,433.68Z"/><path class="cls-24" d="M869.11,454.93s-7.92-3.93-11.19-11.16S846,436.38,846,436.38l-3.37,4.12L854,449.11"/><path class="cls-33" d="M822.34,511.4l9.56,22.45-1.11,9.89c-11.68,6.8-21.2,7.25-28.64,3.57-.07,0-.15,0-.21-.15-17.22-8.64-31-27.83-23.73-35.77l65.24-71.75c4.25,0,7.15,1.13,8.85,3,11,12-20.34,55.82-28.19,66.37C823,510.55,822.34,511.4,822.34,511.4Z"/><path class="cls-31" d="M896.45,413l-1.34-1.64a8,8,0,0,1-1.78-5.6l1.14-17c-28.92,0-36,35.42-36,35.42l10.63,9.5c22.56,0,24.78-11,24.37-16.84a3.42,3.42,0,0,0,3.22-2.32A1.52,1.52,0,0,0,896.45,413Z"/><path class="cls-34" d="M887.87,391.79l-10,1.7q-.8.51-1.56,1.06l-1.61,38.88a35.87,35.87,0,0,0,7.53-1.48c.48-3.8-2.07-21.64,3.69-24,6.18-2.49,7.91-9.54,7.91-9.54Z"/><polygon class="cls-35" points="818.71 718.85 843.62 718.85 828.95 710 833.56 695.68 821.12 695.68 818.71 718.85"/><polygon class="cls-35" points="885.23 718.85 911.54 718.85 893.89 708.49 894.6 695.22 883.79 695.68 885.23 718.85"/><path class="cls-24" d="M881.76,482.32c-9.93-18.14-9.4-18.7-10.3-25.2s-13.54,16.82-13.54,25.2,5.33,15.18,11.91,15.18S885.78,489.68,881.76,482.32Z"/><path class="cls-36" d="M899.68,391.22a2.69,2.69,0,0,1-.25,4.1c-3.75,2.8-9.3,4.67-16.7,7.08-8,2.62.18,41.67-6.72,34.78-18.13-18.13-17.27-2-32.56-17.27,0,0,7.17-8.69,7.17-17.86C850.62,380.19,870,363.29,899.68,391.22Z"/><path class="cls-37" d="M893.46,416.83a3.24,3.24,0,0,0,2.9-1.69,2.49,2.49,0,0,1-2.84,0c-1.35-.91-1,.93-.05,1.79Z"/><path class="cls-38" d="M865.94,498.34c-11.3,2.62-10.75,9.38-11.3,13.37s0,30.88,0,30.88.69-17.37,13.65-21.23c9.93-3,10.64-9.92,10.43-13l-1.85-13.24C875.76,495.67,873,496.7,865.94,498.34Z"/><path class="cls-39" d="M818.88,548.75a45.1,45.1,0,0,0,11.91-5l1.11-9.89-9.56-22.45s-8.93,17.47-27.24,13.34c0,0-.11,10.78,12.43,11.57S825.24,546.69,818.88,548.75Z"/><path class="cls-40" d="M1212.68,401.43s-4.62-3.72-17.37-2.35-23.89-5.38-19.8-.3,12.06,4.79,12.06,4.79,9.18,13.33,19.57,9.94,11.38-4.41,11.38-4.41"/><path class="cls-41" d="M1343.92,413.5s-23.52,12.35-93.91-4.41c0,0-32.47-6.45-37.32-7.66s-5.46,5.58.3,8.68,82.1,44.73,121.61,40.78"/><path class="cls-42" d="M1286.79,427.75c-8.19-11.61-28.3-16.73-28.3-16.73h0c63.8,13.83,85.42,2.48,85.42,2.48l-9.32,37.39c-11.42,1.14-25.91-1.53-40.88-6C1280.19,439.56,1295,439.35,1286.79,427.75Z"/><path class="cls-41" d="M1323.09,416.63s-6.63,7.41-3,22,4.76,9.71,5.79,26.4,16.87-11.38,16.87-11.38"/><polygon class="cls-40" points="1248.85 677.21 1241.87 701.16 1245.41 701.92 1259.13 679.42 1248.85 677.21"/><polygon class="cls-43" points="1247.27 698.41 1242.22 710.18 1212.81 706.88 1242.69 697.34 1247.27 698.41"/><path class="cls-40" d="M1444.3,405.83s1.82-22.34,16.23-22.34c9.34,0,15.2,14.52,5.29,14.52,0,0-11.47-.55-14.43,7.83Z"/><path class="cls-44" d="M1329,520.84s-8.72,67.62,54,177l18-.53-20.45-80.23,9.06-94.66Z"/><path class="cls-45" d="M1389.54,522.43s5.58,49.37-65.48,72.61l-58.72,89.67-17-5.63s36.65-109,86.58-158Z"/><path class="cls-46" d="M1346.8,556.48c-.91-23-19.83-26.79-19.92-26.8h0l16.86-8.33,45.81,1.1s5.57,49.37-65.48,72.61h0S1347.71,579.54,1346.8,556.48Z"/><path class="cls-40" d="M1341.66,411s-9.72.66-9.72-23.52l-9.94,12,2.51,33.2Z"/><path class="cls-40" d="M1302.33,388.79l8.74-7.51a11.47,11.47,0,0,0,2.84-3.68l3.8-7.81.7-1.47,24.36,20.87-19.67,27.44L1307,410a7.59,7.59,0,0,1-3.95-10.25l.67-1.42-2.39-4.29A4.16,4.16,0,0,1,1302.33,388.79Z"/><path class="cls-47" d="M1314.56,381c5.08,3.57,12.35,5.68,22.88,3.8l-17.08-13.65-2.66-1.4-4,8.15A2.48,2.48,0,0,0,1314.56,381Z"/><polygon class="cls-43" points="1404.17 710.11 1406.82 718.85 1382.94 718.85 1400.93 710.11 1404.17 710.11"/><polygon class="cls-40" points="1400.93 697.33 1404.17 710.11 1400.93 710.11 1391.15 697.33 1400.93 697.33"/><path class="cls-41" d="M1316.08,523.24c9.23,17.19,73.44-.83,73.44-.83A238.3,238.3,0,0,0,1385.6,477a131.42,131.42,0,0,0-3.22-13.72c-13.3-46.84-40.74-52.29-40.74-52.29l-17.15,21.7C1331.83,519.23,1307.72,507.66,1316.08,523.24Z"/><path class="cls-48" d="M1341.66,505.58c-13.63-6.14,39.57-9.1,20-29.81s-13.88-40.05-13.88-40.05l30.66,15.85c1.41,3.59,2.73,7.5,3.94,11.75A131.44,131.44,0,0,1,1385.6,477a238.3,238.3,0,0,1,3.92,45.37s-22.39,6.28-42.63,7.89C1369.79,527.6,1355.29,511.72,1341.66,505.58Z"/><path class="cls-41" d="M1376.3,428.64c38.87,34.42,69.2-25.08,69.2-25.08l7,.13c-22.87,77.42-77.61,66.67-77.61,66.67h0a27.43,27.43,0,0,1-27-22.82L1341.64,411S1359,411.31,1376.3,428.64Z"/><path class="cls-49" d="M1395,469.35c.11,0,19.15-8,8.3-10.42s13.93-11.75,19.67-19.8,0-8.06,0-8.06h0c13.95-10.57,22.57-27.49,22.57-27.49l6.23,2.67C1437.68,451.25,1412.63,465.3,1395,469.35Z"/><path class="cls-8" d="M1431.06,334.37s-3.56,46.76,44.24,59.57,47.57,57.35,47.57,57.35-22.78-10.93-36.24,7.05-16.26,16.55-16.26,16.55,6.35-42.83-41.65-52.72-55.43-82-55.43-82,13,20.39,30.13,1.46S1431.06,334.37,1431.06,334.37Z"/><path class="cls-50" d="M1416.85,383.49c38.44,1.33,61.63,11.35,63.4,11.95,42.83,14.44,42.62,55.86,42.62,55.86s-22.78-10.93-36.24,7.05-16.26,16.55-16.26,16.55,6.35-42.83-41.65-52.72c-38.91-8-51.16-56.92-54.41-75.17C1376.9,359.43,1386.86,382.45,1416.85,383.49Z"/><path class="cls-36" d="M1302.31,395.67a16,16,0,0,0,6,6.36c4.28,2.57,9.9,4.29,14.68-6.56l4,3s4.82,15.93-12.38,27.88-29,1.33-20.39-14.11S1302.31,395.67,1302.31,395.67Z"/><path class="cls-36" d="M1327,398.51s-2.12-5.89.42-11,9.1-3.48,9.29,2.71c.2,6.39-4.84,5.6-4.84,5.6s1.77,7.62,2.3,7.68,10-11.85,9.78-14.81-19-19.07-19-19.07l-12.59.18a9,9,0,0,0,3.41,10.33c5.77,4.25,9.73,9.59,7.14,15.68"/><path class="cls-51" d="M1343.33,389.58a1,1,0,0,0,1.43-.22c1.6-2.48,5.15-10.21-2.77-21.62-13.38-19.27-19.53-5.09-25.21.59Z"/><path class="cls-52" d="M1316.77,368.32l-13.47-9.07a.78.78,0,0,0-1.16.93c2.29,5.83,10.24,21.07,30.79,21.07Z"/><path class="cls-41" d="M1347.4,462.11s-23.26-12.3-22.86-28.68,8-29.94,17.12-30.64c9.56-.73,7,9.4,7,9.4l-7,7.44,3.62,17.58"/><path class="cls-53" d="M1338.57,430.25s-7.58-10.41-1.8-16.75,13.75-5.53,7.87-10.53c6,1.41,4.06,9.22,4.06,9.22S1333.79,409.88,1338.57,430.25Z"/><path class="cls-40" d="M1454.06,384.12c6.92-3.65,12.63,1.68,12.63,1.68l4.18,6.81c-4,2.57-13.32-4.84-18.36-4.59S1447.14,387.77,1454.06,384.12Z"/><path class="cls-54" d="M433.7,469.49s110.43-9,119.4-22.85c0,0,5.92,9.82,0,12.57-39,18.14-87.77,41.73-119.4,45.89"/><path class="cls-55" d="M553.11,446.65a64.58,64.58,0,0,1-2.58-7.55c-.75-3.12,2.58-8.37,2.58-12.37s3.42,4.25,2.8,6.25,1.25,5.88,1.25,5.88,2.88-.75,3.88,5,.91,11.5-7.92,15.38C553.11,459.22,557.31,452.32,553.11,446.65Z"/><path class="cls-56" d="M340,535.09s-51.53-18-53.11,86.67l-56.56,30.54,1.32,13.17S381.09,633.63,340,535.09Z"/><path class="cls-57" d="M296.8,561.75c-5.55,13.13-9.47,32.25-9.89,60,0,0-3.23,14.71,0,13.46s31.1-21.69,28-13.46-8.32,12-8.32,12h0c16.93-11.64,31.7-26.89,37.71-46.45Z"/><polygon class="cls-55" points="419.15 670.18 423.17 680.08 427.7 680.08 427.08 670.18 419.15 670.18"/><polygon points="423.17 680.08 426.32 690.25 450.04 690.25 427.7 680.08 423.17 680.08"/><path class="cls-58" d="M359.52,579.05s-14.05,27.09,21.87,0c6.71-5.06,10.43-22.66,22.81-28.17,48.59-21.6,65.22-57,38.81-83.42l-83.49,94.42Z"/><path class="cls-59" d="M466,468v9.8s-7.91,16.2-25.75,37.62c-8,9.57-45.61,24.23-54.86,32-11.91,10-12.73,15.39-24.06,15.39l-64.49-1S315.35,468,466,468Z"/><path class="cls-60" d="M296.7,561.83s-18,51.53,86.67,53.11l30.54,56.56,13.17-1.32S395.24,520.76,296.7,561.83Z"/><path class="cls-61" d="M455.38,486.39l-45.82-9.74s-6.84,27.8,14.46,49.83c7.31-4,13.48-7.83,16.2-11.09a255.23,255.23,0,0,0,15.66-20.83A65.85,65.85,0,0,1,455.38,486.39Z"/><polygon class="cls-55" points="450 468.68 451.1 500.79 477.21 478.03 450 468.68"/><path class="cls-54" d="M466.61,468.68c-16.29-18.18-25.61,0-25.61,0l-.14.06c-2.17.17-4.58.47-7.16.76-37.14,4.34-113.57,16.12-136.89,92.36,0,0,18.31,19.82,42,19.82S321,539.93,438.16,503.2c16.52-5.17,17.07-30,17-34.53Z"/><path class="cls-55" d="M492.46,462.47c-1.17-3.7-2.35-6.93-3.46-9.68a81.4,81.4,0,0,0-6.39-13.61s-27.52,2.22-27.52,31.27,7.33,15.14,7.33,15.14a80.21,80.21,0,0,0,21.06-5.52c3.11-1.29,5.51-15.43,5.51-15.43S493,464.34,492.46,462.47Z"/><path class="cls-62" d="M485.48,444.55l-19.51,7-8.38,5.33,1.28-5.28a12.19,12.19,0,0,1,9.17-9c4.74-1.07,9.1-1.85,9.68-10C478.08,427.62,492.52,428,485.48,444.55Z"/><path class="cls-62" d="M485.48,444.55s-9.13,6.12-9.13,12.37l-2.53,1.48s-3.88-9.17-7.85-5.2a13.72,13.72,0,0,0-3.74,9.42s-11.3,11.7-4.64-5.7L468,445.21Z"/><polygon class="cls-63" points="413.66 671.03 418.18 670.75 405.76 640.43 400.25 646.21 413.66 671.03"/><path class="cls-55" d="M548.73,527s5.57-8,8.49-9c4.07-1.42,8.39,1.18,16.85,3.63,5.64,1.63-6.7,8.07-13.57,4.8,0,0-6.67,7.86-9.48,7C549.38,533,548.73,527,548.73,527Z"/><path class="cls-54" d="M413.94,473.66S438,564.74,551,533.49L548.73,527s-74.67,4.14-93.58-54.75Z"/><polygon class="cls-55" points="230.84 657.21 220.27 661.88 221.1 668.22 231.67 665.46 230.84 657.21"/><polygon points="220.27 661.88 212.6 665.46 216.77 682.24 234.1 682.24 224.6 675.46 220.27 661.88"/><path class="cls-64" d="M440.86,468.73c-2.17.17-4.58.47-7.16.76a309.3,309.3,0,0,0-35.39,5.92c10.86-.9,22.24,10.34,30.79,6.81S441,468.68,441,468.68Z"/><g class="cls-65"><rect class="cls-66" x="416.22" y="287.72" width="8.75" height="8.75"/><rect class="cls-67" x="434.07" y="287.72" width="8.75" height="8.75"/><rect class="cls-68" x="451.92" y="287.72" width="8.75" height="8.75"/><rect class="cls-69" x="469.77" y="287.72" width="8.75" height="8.75"/><rect class="cls-70" x="487.62" y="287.72" width="8.75" height="8.75"/><rect class="cls-71" x="416.22" y="307.47" width="8.75" height="8.75"/><rect class="cls-72" x="434.07" y="307.47" width="8.75" height="8.75"/><rect class="cls-73" x="451.92" y="307.47" width="8.75" height="8.75"/><rect class="cls-74" x="469.77" y="307.47" width="8.75" height="8.75"/><rect class="cls-75" x="487.62" y="307.47" width="8.75" height="8.75"/><rect class="cls-76" x="416.22" y="327.22" width="8.75" height="8.75"/><rect class="cls-77" x="434.07" y="327.22" width="8.75" height="8.75"/><rect class="cls-78" x="451.92" y="327.22" width="8.75" height="8.75"/><rect class="cls-79" x="469.77" y="327.22" width="8.75" height="8.75"/><rect class="cls-80" x="487.62" y="327.22" width="8.75" height="8.75"/><rect class="cls-81" x="416.22" y="346.97" width="8.75" height="8.75"/><rect class="cls-82" x="434.07" y="346.97" width="8.75" height="8.75"/><rect class="cls-83" x="451.92" y="346.97" width="8.75" height="8.75"/><rect class="cls-84" x="469.77" y="346.97" width="8.75" height="8.75"/><rect class="cls-85" x="487.62" y="346.97" width="8.75" height="8.75"/><rect class="cls-86" x="416.22" y="366.72" width="8.75" height="8.75"/><rect class="cls-87" x="434.07" y="366.72" width="8.75" height="8.75"/><rect class="cls-88" x="451.92" y="366.72" width="8.75" height="8.75"/><rect class="cls-89" x="469.77" y="366.72" width="8.75" height="8.75"/><rect class="cls-90" x="487.62" y="366.72" width="8.75" height="8.75"/><rect class="cls-91" x="416.22" y="386.47" width="8.75" height="8.75"/><rect class="cls-92" x="434.07" y="386.47" width="8.75" height="8.75"/><rect class="cls-93" x="451.92" y="386.47" width="8.75" height="8.75"/><rect class="cls-94" x="469.77" y="386.47" width="8.75" height="8.75"/><rect class="cls-95" x="487.62" y="386.47" width="8.75" height="8.75"/><rect class="cls-96" x="416.22" y="406.22" width="8.75" height="8.75"/><rect class="cls-97" x="434.07" y="406.22" width="8.75" height="8.75"/><rect class="cls-98" x="451.92" y="406.22" width="8.75" height="8.75"/><rect class="cls-99" x="469.77" y="406.22" width="8.75" height="8.75"/><rect class="cls-100" x="487.62" y="406.22" width="8.75" height="8.75"/></g></g></g></svg>